<svg width="416" height="235" viewBox="0 0 416 235" fill="none" xmlns="http://www.w3.org/2000/svg">
<path d="M65.6209 40.1505C54.5412 40.1354 45.5716 31.1412 45.5867 20.0615V20.0615C45.6019 8.98186 54.596 0.0122644 65.6757 0.0273978L79.6601 0.0464987C90.7398 0.0616321 99.7094 9.05576 99.6943 20.1354V20.1354C99.6791 31.2151 90.685 40.1847 79.6053 40.1696L65.6209 40.1505Z" fill="#5FD796"/>
<path d="M20.0615 233.242C8.98184 233.227 0.0122681 224.232 0.0274015 213.153V213.153C0.0425349 202.073 9.03666 193.103 20.1163 193.119L89.8757 193.214C100.955 193.229 109.925 202.223 109.91 213.303V213.303C109.895 224.383 100.901 233.352 89.8208 233.337L20.0615 233.242Z" fill="#5FD796"/>
<path d="M228.212 103.259C217.132 103.244 208.163 94.2496 208.178 83.1699V83.1699C208.193 72.0903 217.187 63.1207 228.267 63.1358L348.216 63.2996C359.295 63.3148 368.265 72.3089 368.25 83.3886V83.3886C368.235 94.4683 359.241 103.438 348.161 103.423L228.212 103.259Z" fill="#7F5AF0"/>
<path d="M203.274 168.15C192.195 168.135 183.225 159.141 183.24 148.062V148.062C183.255 136.982 192.249 128.012 203.329 128.027L426.289 128.332C437.369 128.347 446.339 137.341 446.324 148.421V148.421C446.308 159.501 437.314 168.47 426.235 168.455L203.274 168.15Z" fill="#94A1B2"/>
<path d="M134.138 40.5069C123.058 40.4917 114.089 31.4976 114.104 20.4179V20.4179C114.119 9.33824 123.113 0.368649 134.193 0.383782L416.757 0.769728C427.836 0.784861 436.806 9.77899 436.791 20.8587V20.8587C436.776 31.9384 427.781 40.908 416.702 40.8928L134.138 40.5069Z" fill="#5FD796"/>
<path d="M316.776 233.91C305.696 233.895 296.726 224.9 296.742 213.821V213.821C296.757 202.741 305.751 193.771 316.83 193.787L371.197 193.861C382.277 193.876 391.247 202.87 391.231 213.95V213.95C391.216 225.03 382.222 233.999 371.142 233.984L316.776 233.91Z" fill="#5FD796"/>
<path d="M143.728 233.15C132.648 233.135 123.679 224.141 123.694 213.062V213.062C123.709 201.982 132.703 193.012 143.783 193.027L264.924 193.193C276.003 193.208 284.973 202.202 284.958 213.282V213.282C284.943 224.361 275.949 233.331 264.869 233.316L143.728 233.15Z" fill="#7F5AF0"/>
<path d="M31.0616 103.533C19.9819 103.517 11.0123 94.5233 11.0274 83.4436V83.4436C11.0425 72.3639 20.0367 63.3943 31.1163 63.4095L175.95 63.6073C187.03 63.6224 195.999 72.6166 195.984 83.6963V83.6963C195.969 94.7759 186.975 103.746 175.895 103.73L31.0616 103.533Z" fill="#5FD796"/>
<path d="M98.5503 168.55C87.4706 168.535 78.501 159.541 78.5162 148.461V148.461C78.5313 137.382 87.5254 128.412 98.6051 128.427L143.916 128.489C154.996 128.504 163.965 137.498 163.95 148.578V148.578C163.935 159.658 154.941 168.627 143.861 168.612L98.5503 168.55Z" fill="#5FD796"/>
</svg>
